<mxfile host="app.diagrams.net" agent="Mozilla/5.0 (Windows NT 10.0; Win64; x64; rv:138.0) Gecko/20100101 Firefox/138.0" version="27.0.9">
  <diagram name="Seite-1" id="kT5I6uc48kXT6J0Nm--A">
    <mxGraphModel dx="1375" dy="759" grid="1" gridSize="10" guides="1" tooltips="1" connect="1" arrows="1" fold="1" page="1" pageScale="1" pageWidth="2336" pageHeight="1654" math="0" shadow="0">
      <root>
        <mxCell id="0" />
        <mxCell id="1" parent="0" />
        <mxCell id="3q551X2CYCGsesnq2pVm-1" value="&lt;div&gt;Technik&lt;/div&gt;" style="rounded=0;whiteSpace=wrap;html=1;" vertex="1" parent="1">
          <mxGeometry x="320" y="160" width="120" height="60" as="geometry" />
        </mxCell>
        <mxCell id="3q551X2CYCGsesnq2pVm-5" style="rounded=0;orthogonalLoop=1;jettySize=auto;html=1;exitX=0;exitY=0.5;exitDx=0;exitDy=0;endArrow=none;startFill=0;" edge="1" parent="1" source="3q551X2CYCGsesnq2pVm-2" target="3q551X2CYCGsesnq2pVm-1">
          <mxGeometry relative="1" as="geometry" />
        </mxCell>
        <mxCell id="3q551X2CYCGsesnq2pVm-2" value="TechnikBereich" style="ellipse;whiteSpace=wrap;html=1;" vertex="1" parent="1">
          <mxGeometry x="520" y="150" width="120" height="80" as="geometry" />
        </mxCell>
        <mxCell id="3q551X2CYCGsesnq2pVm-6" style="rounded=0;orthogonalLoop=1;jettySize=auto;html=1;exitX=0;exitY=0.5;exitDx=0;exitDy=0;entryX=1;entryY=0.5;entryDx=0;entryDy=0;endArrow=none;startFill=0;" edge="1" parent="1" source="3q551X2CYCGsesnq2pVm-3" target="3q551X2CYCGsesnq2pVm-1">
          <mxGeometry relative="1" as="geometry" />
        </mxCell>
        <mxCell id="3q551X2CYCGsesnq2pVm-3" value="Arbeitsweise" style="ellipse;whiteSpace=wrap;html=1;" vertex="1" parent="1">
          <mxGeometry x="520" y="250" width="120" height="80" as="geometry" />
        </mxCell>
        <mxCell id="3q551X2CYCGsesnq2pVm-7" style="rounded=0;orthogonalLoop=1;jettySize=auto;html=1;exitX=0;exitY=0.5;exitDx=0;exitDy=0;entryX=1;entryY=0.5;entryDx=0;entryDy=0;endArrow=none;startFill=0;" edge="1" parent="1" source="3q551X2CYCGsesnq2pVm-4" target="3q551X2CYCGsesnq2pVm-1">
          <mxGeometry relative="1" as="geometry" />
        </mxCell>
        <mxCell id="3q551X2CYCGsesnq2pVm-4" value="Methode" style="ellipse;whiteSpace=wrap;html=1;" vertex="1" parent="1">
          <mxGeometry x="520" y="370" width="120" height="80" as="geometry" />
        </mxCell>
      </root>
    </mxGraphModel>
  </diagram>
</mxfile>
